<svg id="Layer_1" data-name="Layer 1" xmlns="http://www.w3.org/2000/svg" viewBox="0 0 100.25 113.38"><path d="M58.68,119.84a118,118,0,0,1-42-7.4S8.91,96.31,8.91,59.54c0-20.64,8.7-44.82,8.7-44.82C28.71,8.56,42.4,7.21,58.68,7.21h0c16.27,0,30,1.35,41.07,7.51,0,0,8.7,24.17,8.7,44.82,0,36.77-7.74,52.9-7.74,52.9a117.78,117.78,0,0,1-42,7.4Z" transform="translate(-8.54 -6.83)" fill="#00583d" stroke="#fff" stroke-width="0.75"/><path d="M36,17.06h6.25v6h4v-6h6.25V34.9H46.24V28.7h-4v6.2H36Z" transform="translate(-8.54 -6.83)" fill="#fff"/><path d="M55.92,17.06H62.4V34.9H55.92Z" transform="translate(-8.54 -6.83)" fill="#fff"/><path d="M71.13,34.9H64.27l6.2-17.84h7.17L84,34.9H77.15l-.59-2.22h-4.9Zm4.29-6.46-.76-3.15c-.19-.76-.31-1.54-.43-2.3H74l-1.18,5.44h2.61Z" transform="translate(-8.54 -6.83)" fill="#fff"/><polygon points="40.83 42.3 27.8 52.98 46.37 49.63 40.83 42.3" fill="#ffd520"/><path d="M51.59,48.32,66.34,68.07l7.75-1.25s.35-7.37,12.29-7.37v5.13L98.9,62.33,83.9,42.7l-2,.44v6.57l-1.7.49V42.57l-4.93-3.38-5.75.94,4.61,3.66v7.47l-5.61-5.94Z" transform="translate(-8.54 -6.83)" fill="#ffd520"/><path d="M34,59.05V42s6.33-.48,6.33,4.83v7Z" transform="translate(-8.54 -6.83)" fill="#fff"/><path d="M42.38,52V37.9s7.15.25,7.15,5.08V46Z" transform="translate(-8.54 -6.83)" fill="#fff"/><path d="M51.63,45.88v-5.6s7.15.48,7.15,4.42h0Z" transform="translate(-8.54 -6.83)" fill="#fff"/><path d="M70.45,119.31V105.7l14.67-22V61.07s-9.67-.83-9.67,8V76.4L65,83.23v-2l4.33-3V76.73L59.4,68.06V62.5l-2.79-3.88-5,1.1v10l-2,.56V60l-7.31,1.31V72.25l-2,.56V61.57L34,62.7V74.64l-2.08.69V60.94s.69-8-8.25-8V83.73l21,21v14.35a128.17,128.17,0,0,0,14,.76C62.88,119.84,66.79,119.64,70.45,119.31Z" transform="translate(-8.54 -6.83)" fill="#fff"/></svg>